#N canvas 9 101 1440 847 12;
#N canvas 701 68 450 278 (subpatch) 0;
#X array xy 4410 float 0;
#X coords 0 1 4409 -1 200 140 1;
#X restore 1075 62 graph;
#X obj 269 374 bng 19 250 50 0 empty empty empty 0 -10 0 12 #fcfcfc #000000 #000000;
#X obj 260 696 tabwrite~ xy;
#X obj 887 678 dac~;
#X floatatom 694 402 5 0 0 0 - - - 0;
#X obj 769 155 hsl 162 19 -0.9 0.9 0 0 empty empty e -16 10 0 12 #fcfcfc #000000 #000000 0 1;
#X floatatom 401 294 5 0 0 0 a - - 0;
#X obj 401 253 expr 1+min($f1 \, 0);
#X floatatom 1078 344 5 0 0 0 b - - 0;
#X obj 1075 250 expr 1-max($f1 \, 0);
#X obj 264 567 metro 500;
#X obj 773 64 bng 19 250 50 0 empty empty empty 0 -10 0 12 #fcfcfc #000000 #000000;
#X floatatom 774 99 5 0 0 0 - - - 0;
#X obj 397 602 expr~ 0.9*$v2/sqrt($v1*$v1 + $v2*$v2), f 38;
#X obj 397 538 expr~ $v1*cos(2*3.14159*$v2);
#X obj 660 538 expr~ $v2*sin(2*3.14159*$v1);
#X obj 878 540 expr~ $v1*cos(2*3.14159*$v2);
#X obj 1135 539 expr~ $v2*sin(2*3.14159*$v1);
#X obj 627 467 phasor~ 10;
#X obj 1102 462 phasor~ 440;
#X obj 904 605 expr~ $v2/sqrt($v1*$v1 + $v2*$v2);
#X connect 1 0 4 0;
#X connect 1 0 10 0;
#X connect 4 0 18 1;
#X connect 5 0 7 0;
#X connect 5 0 9 0;
#X connect 6 0 14 0;
#X connect 6 0 16 0;
#X connect 7 0 6 0;
#X connect 8 0 15 1;
#X connect 8 0 17 1;
#X connect 9 0 8 0;
#X connect 10 0 2 0;
#X connect 11 0 12 0;
#X connect 12 0 5 0;
#X connect 13 0 2 0;
#X connect 14 0 13 0;
#X connect 15 0 13 1;
#X connect 16 0 20 0;
#X connect 17 0 20 1;
#X connect 18 0 14 1;
#X connect 18 0 15 0;
#X connect 19 0 17 0;
#X connect 19 0 16 1;
#X connect 20 0 3 0;
#X connect 20 0 3 1;
